<svg width="36" height="54" viewBox="0 0 36 54" fill="none" xmlns="http://www.w3.org/2000/svg" xmlns:xlink="http://www.w3.org/1999/xlink">
<path d="M35.45,52.092L30.952,52.092L30.952,47.198C30.952,43.144 27.932,39.857 24.206,39.857L10.714,39.857C6.988,39.857 3.968,43.144 3.968,47.198L3.968,52.092L-0.529,52.092L-0.529,47.198C-0.529,40.441 4.505,34.963 10.714,34.963L24.206,34.963C30.416,34.963 35.45,40.441 35.45,47.198L35.45,52.092ZM17.46,30.069C10.009,30.069 3.968,23.496 3.968,15.387C3.968,7.278 10.009,0.705 17.46,0.705C24.912,0.705 30.952,7.278 30.952,15.387C30.952,23.496 24.912,30.069 17.46,30.069ZM17.46,25.175C22.428,25.175 26.455,20.793 26.455,15.387C26.455,9.981 22.428,5.599 17.46,5.599C12.492,5.599 8.465,9.981 8.465,15.387C8.465,20.793 12.492,25.175 17.46,25.175Z" fill="#1C1C1C"/>
</svg>
