<svg width="30" height="54" viewBox="0 0 30 54" fill="none" xmlns="http://www.w3.org/2000/svg" xmlns:xlink="http://www.w3.org/1999/xlink">
<path d="M29.198,52.106L25.451,52.106L25.451,47.212C25.451,43.157 22.935,39.871 19.83,39.871L8.588,39.871C5.484,39.871 2.967,43.157 2.967,47.212L2.967,52.106L-0.78,52.106L-0.78,47.212C-0.78,40.455 3.414,34.977 8.588,34.977L19.83,34.977C25.004,34.977 29.198,40.455 29.198,47.212L29.198,52.106ZM14.209,30.083C8.001,30.083 2.967,23.509 2.967,15.401C2.967,7.292 8.001,0.719 14.209,0.719C20.418,0.719 25.451,7.292 25.451,15.401C25.451,23.509 20.418,30.083 14.209,30.083ZM14.209,25.189C18.348,25.189 21.704,20.807 21.704,15.401C21.704,9.995 18.348,5.613 14.209,5.613C10.07,5.613 6.715,9.995 6.715,15.401C6.715,20.807 10.07,25.189 14.209,25.189Z" fill="#1C1C1C"/>
</svg>
