<svg width="40" height="54" viewBox="0 0 40 54" fill="none" xmlns="http://www.w3.org/2000/svg" xmlns:xlink="http://www.w3.org/1999/xlink">
<path d="M5.969,17.834L5.969,15.387C5.969,7.278 12.009,0.705 19.461,0.705C26.912,0.705 32.953,7.278 32.953,15.387L32.953,17.834L37.45,17.834C38.692,17.834 39.699,18.929 39.699,20.281L39.699,49.645C39.699,50.996 38.692,52.092 37.45,52.092L1.471,52.092C0.229,52.092 -0.777,50.996 -0.777,49.645L-0.777,20.281C-0.777,18.929 0.229,17.834 1.471,17.834L5.969,17.834ZM35.201,22.728L3.72,22.728L3.72,47.198L35.201,47.198L35.201,22.728ZM17.212,36.755C15.868,35.909 14.963,34.327 14.963,32.516C14.963,29.813 16.977,27.622 19.461,27.622C21.945,27.622 23.958,29.813 23.958,32.516C23.958,34.327 23.054,35.909 21.709,36.755L21.709,42.304L17.212,42.304L17.212,36.755ZM10.466,17.834L28.455,17.834L28.455,15.387C28.455,9.981 24.428,5.599 19.461,5.599C14.493,5.599 10.466,9.981 10.466,15.387L10.466,17.834Z" fill="#1C1C1C"/>
</svg>
