<svg width="32" height="54" viewBox="0 0 32 54" fill="none" xmlns="http://www.w3.org/2000/svg" xmlns:xlink="http://www.w3.org/1999/xlink">
<path d="M30.242,52.106L26.44,52.106L26.44,47.212C26.44,43.157 23.886,39.871 20.736,39.871L9.33,39.871C6.18,39.871 3.626,43.157 3.626,47.212L3.626,52.106L-0.176,52.106L-0.176,47.212C-0.176,40.455 4.08,34.977 9.33,34.977L20.736,34.977C25.986,34.977 30.242,40.455 30.242,47.212L30.242,52.106ZM15.033,30.083C8.733,30.083 3.626,23.509 3.626,15.401C3.626,7.292 8.733,0.719 15.033,0.719C21.333,0.719 26.44,7.292 26.44,15.401C26.44,23.509 21.333,30.083 15.033,30.083ZM15.033,25.189C19.233,25.189 22.637,20.807 22.637,15.401C22.637,9.995 19.233,5.613 15.033,5.613C10.833,5.613 7.429,9.995 7.429,15.401C7.429,20.807 10.833,25.189 15.033,25.189Z" fill="#1C1C1C"/>
</svg>
