<svg width="42" height="52" viewBox="0 0 42 52" fill="none" xmlns="http://www.w3.org/2000/svg" xmlns:xlink="http://www.w3.org/1999/xlink">
<path d="M6.746,17.129L6.746,14.682C6.746,6.573 12.787,0 20.238,0C27.69,0 33.73,6.573 33.73,14.682L33.73,17.129L38.228,17.129C39.469,17.129 40.476,18.225 40.476,19.576L40.476,48.94C40.476,50.292 39.469,51.387 38.228,51.387L2.249,51.387C1.007,51.387 0,50.292 0,48.94L0,19.576C0,18.225 1.007,17.129 2.249,17.129L6.746,17.129ZM35.979,22.023L4.497,22.023L4.497,46.493L35.979,46.493L35.979,22.023ZM17.989,36.05C16.645,35.204 15.741,33.623 15.741,31.811C15.741,29.108 17.754,26.917 20.238,26.917C22.722,26.917 24.735,29.108 24.735,31.811C24.735,33.623 23.831,35.204 22.487,36.05L22.487,41.599L17.989,41.599L17.989,36.05ZM11.243,17.129L29.233,17.129L29.233,14.682C29.233,9.276 25.206,4.894 20.238,4.894C15.27,4.894 11.243,9.276 11.243,14.682L11.243,17.129Z" fill="#1C1C1C"/>
</svg>
