<svg width="48" height="48" viewBox="0 0 48 48" fill="none" xmlns="http://www.w3.org/2000/svg" xmlns:xlink="http://www.w3.org/1999/xlink">
<circle cx="24" cy="24" r="18" fill="#DB4444"/>
<path d="M16.586,28.586C15.805,29.367 15.805,30.633 16.586,31.414C17.367,32.195 18.633,32.195 19.414,31.414L16.586,28.586ZM25.414,25.414C26.195,24.633 26.195,23.367 25.414,22.586C24.633,21.805 23.367,21.805 22.586,22.586L25.414,25.414ZM31.414,19.414C32.195,18.633 32.195,17.367 31.414,16.586C30.633,15.805 29.367,15.805 28.586,16.586L31.414,19.414ZM22.585,22.586C21.804,23.367 21.804,24.633 22.584,25.414C23.365,26.195 24.632,26.195 25.413,25.414L22.585,22.586ZM22.584,25.414C23.365,26.195 24.632,26.195 25.413,25.414C26.194,24.633 26.194,23.367 25.413,22.586L22.584,25.414ZM19.414,16.586C18.633,15.805 17.367,15.805 16.586,16.586C15.805,17.367 15.805,18.633 16.586,19.414L19.414,16.586ZM25.414,22.586C24.633,21.805 23.367,21.805 22.586,22.586C21.805,23.367 21.805,24.633 22.586,25.414L25.414,22.586ZM28.586,31.414C29.367,32.195 30.633,32.195 31.414,31.414C32.195,30.633 32.195,29.367 31.414,28.586L28.586,31.414ZM19.414,31.414L25.414,25.414L22.586,22.586L16.586,28.586L19.414,31.414ZM28.586,16.586L22.585,22.586L25.413,25.414L31.414,19.414L28.586,16.586ZM25.413,22.586L19.414,16.586L16.586,19.414L22.584,25.414L25.413,22.586ZM22.586,25.414L28.586,31.414L31.414,28.586L25.414,22.586L22.586,25.414Z" fill="#FFFFFF"/>
</svg>
