<svg width="42" height="40" viewBox="0 0 42 40" fill="none" xmlns="http://www.w3.org/2000/svg" xmlns:xlink="http://www.w3.org/1999/xlink">
<path d="M32.593,19.94C31.913,21.18 30.593,22 29.093,22L14.193,22L11.993,26L35.993,26L35.993,30L11.993,30C8.953,30 7.033,26.74 8.493,24.06L11.193,19.18L3.993,4L-0.007,4L-0.007,0L6.533,0L8.413,4L38.013,4C39.533,4 40.493,5.64 39.753,6.96L32.593,19.94ZM34.613,8L10.313,8L15.053,18L29.093,18L34.613,8ZM11.993,32C9.793,32 8.013,33.8 8.013,36C8.013,38.2 9.793,40 11.993,40C14.193,40 15.993,38.2 15.993,36C15.993,33.8 14.193,32 11.993,32ZM28.013,36C28.013,33.8 29.793,32 31.993,32C34.193,32 35.993,33.8 35.993,36C35.993,38.2 34.193,40 31.993,40C29.793,40 28.013,38.2 28.013,36Z" clip-rule="evenodd" fill-rule="evenodd" fill="#1E1B1B"/>
</svg>
