<svg width="42" height="52" viewBox="0 0 42 52" fill="none" xmlns="http://www.w3.org/2000/svg" xmlns:xlink="http://www.w3.org/1999/xlink">
<path d="M7.492,17.576L7.492,15.129C7.492,7.02 13.533,0.447 20.984,0.447C28.436,0.447 34.476,7.02 34.476,15.129L34.476,17.576L38.974,17.576C40.215,17.576 41.222,18.672 41.222,20.023L41.222,49.387C41.222,50.739 40.215,51.834 38.974,51.834L2.995,51.834C1.753,51.834 0.746,50.739 0.746,49.387L0.746,20.023C0.746,18.672 1.753,17.576 2.995,17.576L7.492,17.576ZM36.725,22.47L5.243,22.47L5.243,46.94L36.725,46.94L36.725,22.47ZM18.736,36.497C17.391,35.651 16.487,34.07 16.487,32.258C16.487,29.555 18.5,27.364 20.984,27.364C23.468,27.364 25.481,29.555 25.481,32.258C25.481,34.07 24.577,35.651 23.233,36.497L23.233,42.046L18.736,42.046L18.736,36.497ZM11.989,17.576L29.979,17.576L29.979,15.129C29.979,9.723 25.952,5.341 20.984,5.341C16.017,5.341 11.989,9.723 11.989,15.129L11.989,17.576Z" fill="#1C1C1C"/>
</svg>
