<svg width="48" height="44" viewBox="0 0 48 44" fill="none" xmlns="http://www.w3.org/2000/svg" xmlns:xlink="http://www.w3.org/1999/xlink">
<path d="M1.714,8.082L46.286,8.082C47.233,8.082 48,7.278 48,6.286L48,1.796C48,0.804 47.233,0 46.286,0L1.714,0C0.767,0 0,0.804 0,1.796L0,6.286C0,7.278 0.767,8.082 1.714,8.082ZM1.714,26.041L46.286,26.041C47.233,26.041 48,25.237 48,24.245L48,19.755C48,18.763 47.233,17.959 46.286,17.959L1.714,17.959C0.767,17.959 0,18.763 0,19.755L0,24.245C0,25.237 0.767,26.041 1.714,26.041ZM1.714,44L46.286,44C47.233,44 48,43.196 48,42.204L48,37.714C48,36.722 47.233,35.918 46.286,35.918L1.714,35.918C0.767,35.918 0,36.722 0,37.714L0,42.204C0,43.196 0.767,44 1.714,44Z" fill="#000000"/>
</svg>
