<svg width="34" height="54" viewBox="0 0 34 54" fill="none" xmlns="http://www.w3.org/2000/svg" xmlns:xlink="http://www.w3.org/1999/xlink">
<path d="M4.968,17.848L4.968,15.401C4.968,7.292 10.001,0.719 16.209,0.719C22.418,0.719 27.451,7.292 27.451,15.401L27.451,17.848L31.198,17.848C32.233,17.848 33.072,18.943 33.072,20.295L33.072,49.659C33.072,51.01 32.233,52.106 31.198,52.106L1.22,52.106C0.186,52.106 -0.653,51.01 -0.653,49.659L-0.653,20.295C-0.653,18.943 0.186,17.848 1.22,17.848L4.968,17.848ZM29.325,22.742L3.094,22.742L3.094,47.212L29.325,47.212L29.325,22.742ZM14.336,36.769C13.216,35.923 12.462,34.341 12.462,32.53C12.462,29.827 14.14,27.636 16.209,27.636C18.279,27.636 19.956,29.827 19.956,32.53C19.956,34.341 19.203,35.923 18.083,36.769L18.083,42.318L14.336,42.318L14.336,36.769ZM8.715,17.848L23.704,17.848L23.704,15.401C23.704,9.995 20.348,5.613 16.209,5.613C12.07,5.613 8.715,9.995 8.715,15.401L8.715,17.848Z" fill="#1C1C1C"/>
</svg>
