<svg width="34" height="56" viewBox="0 0 34 56" fill="none" xmlns="http://www.w3.org/2000/svg" xmlns:xlink="http://www.w3.org/1999/xlink">
<path d="M6.146,17.994L6.146,15.317C6.146,6.443 11.087,-0.75 17.182,-0.75C23.277,-0.75 28.219,6.443 28.219,15.317L28.219,17.994L31.897,17.994C32.913,17.994 33.737,19.193 33.737,20.672L33.737,52.806C33.737,54.285 32.913,55.483 31.897,55.483L2.467,55.483C1.451,55.483 0.627,54.285 0.627,52.806L0.627,20.672C0.627,19.193 1.451,17.994 2.467,17.994L6.146,17.994ZM30.058,23.35L4.306,23.35L4.306,50.128L30.058,50.128L30.058,23.35ZM15.343,38.7C14.243,37.774 13.503,36.044 13.503,34.061C13.503,31.103 15.15,28.706 17.182,28.706C19.214,28.706 20.861,31.103 20.861,34.061C20.861,36.044 20.121,37.774 19.022,38.7L19.022,44.772L15.343,44.772L15.343,38.7ZM9.825,17.994L24.54,17.994L24.54,15.317C24.54,9.401 21.246,4.606 17.182,4.606C13.119,4.606 9.825,9.401 9.825,15.317L9.825,17.994Z" fill="#1C1C1C"/>
</svg>
